<svg xmlns="http://www.w3.org/2000/svg" viewBox="0 0 246.52 156.92"><defs><style>.cls-1{fill:#fff;}.cls-2{fill:none;stroke:#fff;stroke-miterlimit:10;stroke-width:3px;}</style></defs><g id="Layer_2" data-name="Layer 2"><g id="Layer_1-2" data-name="Layer 1"><path class="cls-1" d="M0,154.15V89.55H14.49a19.15,19.15,0,0,1,7.57,36.73l1.75,1.38a37.62,37.62,0,0,1,7.94,9.88,26.37,26.37,0,0,0,7.84,8.86A25.59,25.59,0,0,0,49,150.46c6.92,1.57,14.49.83,21.13.28a4.18,4.18,0,0,1,1.11-.1l.46,5.54a4.5,4.5,0,0,0-1.1.09c-3.7.28-7.76.65-11.91.65a48.52,48.52,0,0,1-10.89-1.11,29.71,29.71,0,0,1-11.45-4.89A31.91,31.91,0,0,1,27,140.31a30.69,30.69,0,0,0-6.74-8.4,14.74,14.74,0,0,0-9.78-4.06H5.54v26.3Zm14.49-31.84a13.62,13.62,0,0,0,0-27.23H5.54v27.23Zm48.36-8.12H51.13v16.33H70.05v5.54H45.59V89.55H70.05v5.53H51.13v13.57H62.85Z"/><path class="cls-1" d="M99.77,123.05H86.48v31.1H80.94V89.55h31.2v5.53H86.48v22.43h13.2Z"/><path class="cls-1" d="M121.37,154.15V89.55h5.53v64.6Z"/><path class="cls-1" d="M136.13,154.15V89.55h10.34l16.89,59.06H164V89.55h5.53v64.6H159.11L142.32,95.08h-.65v59.07Z"/><path class="cls-1" d="M197.42,123.05H184.31v25.56h22.15v5.54H178.77V89.55h27.69v5.53H184.31v22.43h13.11Z"/><path class="cls-1" d="M215.69,154.15V89.55h11.44a19.3,19.3,0,0,1,19.39,19.29v26a19.36,19.36,0,0,1-19.39,19.29Zm5.54-5.54h5.9A13.8,13.8,0,0,0,241,134.86v-26a13.75,13.75,0,0,0-13.85-13.76h-5.9Z"/><path class="cls-2" d="M137.94,38.55a51.84,51.84,0,0,1-4.87,23,53.74,53.74,0,0,1-8.84,13.22,53.74,53.74,0,0,1-8.84-13.22,51.84,51.84,0,0,1-4.87-23c.15-18.14,9.77-31.33,13.71-36.17C128.17,7.22,137.79,20.41,137.94,38.55Z"/><path class="cls-1" d="M124.26,74.72h0c3.91-4.84,13.46-18,13.6-36.17A52.06,52.06,0,0,0,133,15.6a53.8,53.8,0,0,0-8.77-13.22h0Z"/><path class="cls-2" d="M102.77,59.67a31.51,31.51,0,0,1,8.89,11.1A32.6,32.6,0,0,1,114.47,80a32.91,32.91,0,0,1-9.59-.94,31.3,31.3,0,0,1-12.64-6.53c-8.45-7-10.94-16.61-11.7-20.32C84.33,52.23,94.21,52.78,102.77,59.67Z"/><path class="cls-1" d="M114.48,80h0c-.77-3.69-3.29-13.23-11.74-20.27a31.54,31.54,0,0,0-12.62-6.55,32.54,32.54,0,0,0-9.57-1h0Z"/><path class="cls-2" d="M156,72.58a31.42,31.42,0,0,0,8.89-11.1,32.55,32.55,0,0,0,2.81-9.22,32.6,32.6,0,0,0-9.6.93,31.31,31.31,0,0,0-12.63,6.53c-8.45,7-10.94,16.61-11.7,20.32C137.57,80,147.45,79.48,156,72.58Z"/><path class="cls-1" d="M167.73,52.27h0C167,56,164.44,65.51,156,72.54a31.54,31.54,0,0,1-12.62,6.55,32.6,32.6,0,0,1-9.57,1h0Z"/></g></g></svg>